<svg width="89" height="64" viewBox="0 0 89 64" fill="none" xmlns="http://www.w3.org/2000/svg">
<g clip-path="url(#clip0_526:1141)">
<path d="M41.797 21.136C34.6292 28.3039 34.6292 39.9615 41.797 47.1293C45.3941 50.7264 50.0939 52.5117 54.7936 52.5117C59.4934 52.5117 64.1932 50.7264 67.7903 47.1293C76.9273 37.9923 78.4239 10.5024 78.4239 10.5024C78.4239 10.5024 50.934 11.999 41.797 21.136ZM64.0882 43.4272C61.5939 45.8953 58.3119 47.2606 54.7936 47.2606C52.4569 47.2606 50.2514 46.6042 48.2822 45.4752C50.6977 37.9135 55.1612 31.2708 61.095 26.2559C54.1898 29.8267 48.3872 35.3404 44.3701 42.0094C40.4842 36.8633 40.8256 29.5379 45.5253 24.8381C50.0939 20.2696 62.7754 17.4602 72.6476 16.2787C71.4661 26.1509 68.6567 38.8325 64.0882 43.4272Z" fill="white"/>
</g>
<path d="M16.3673 52.4512C20.8579 55.2177 26.7592 53.8158 29.5257 49.3252C30.9141 47.0717 31.2527 44.4779 30.6875 42.0987C30.1223 39.7196 28.6533 37.5551 26.3998 36.1668C20.6756 32.6403 6.57956 35.1886 6.57956 35.1886C6.57956 35.1886 10.6431 48.9247 16.3673 52.4512ZM24.9709 38.4861C26.5203 39.452 27.6061 40.9492 28.0292 42.7302C28.3102 43.9132 28.2432 45.1086 27.9085 46.2412C23.7901 45.9278 19.8906 44.4671 16.6383 42.0664C19.2764 45.1326 22.7654 47.4068 26.6245 48.6384C24.4867 51.2244 20.7374 51.9326 17.793 50.1186C14.9309 48.3553 11.9837 42.2735 10.1983 37.4181C15.3379 36.8289 22.0955 36.726 24.9709 38.4861Z" fill="#FFC533"/>
<path d="M20.7758 23.2245C23.0635 26.6122 27.6786 27.5067 31.0663 25.2191C32.7663 24.071 33.8338 22.3474 34.1944 20.4868C34.555 18.6262 34.2088 16.6286 33.0608 14.9286C30.1446 10.6102 19.3765 7.90839 19.3765 7.90839C19.3765 7.90839 17.8597 18.9062 20.7758 23.2245ZM31.3111 16.1101C32.0968 17.287 32.3855 18.691 32.1155 20.0839C31.9362 21.009 31.5071 21.8318 30.9091 22.5247C28.1008 20.9882 25.8135 18.7114 24.2835 15.9775C25.1673 18.9852 26.9049 21.7055 29.2368 23.8076C26.9013 24.9511 24.0275 24.2538 22.5275 22.0326C21.0694 19.8734 20.9303 14.6374 21.2201 10.6384C25.0377 11.8637 29.8426 13.9489 31.3111 16.1101Z" fill="white"/>
<defs>
<clipPath id="clip0_526:1141">
<rect width="63.014" height="63.014" fill="white" transform="translate(25.9124)"/>
</clipPath>
</defs>
</svg>
