<svg width="228" height="161" viewBox="0 0 228 161" fill="none" xmlns="http://www.w3.org/2000/svg">
<path d="M41.7321 133.901C53.1896 140.976 68.2596 137.412 75.3341 125.954C78.8844 120.205 79.7555 113.583 78.3186 107.508C76.8817 101.432 73.1368 95.9025 67.3871 92.3523C52.7819 83.3341 16.7876 89.8041 16.7876 89.8041C16.7876 89.8041 27.1269 124.883 41.7321 133.901ZM63.7332 98.2699C67.6863 100.74 70.4546 104.565 71.5303 109.113C72.2447 112.134 72.0705 115.186 71.2131 118.076C60.6994 117.266 50.7476 113.527 42.4506 107.389C49.1778 115.224 58.0796 121.039 67.9289 124.193C62.4644 130.79 52.8904 132.588 45.3779 127.95C38.0754 123.441 30.5664 107.906 26.0208 95.5052C39.144 94.0143 56.3967 93.7688 63.7332 98.2699Z" fill="#FFC533"/>
<g clip-path="url(#clip0_509:1145)">
<path d="M106.678 53.9611C88.3787 72.2609 88.3787 102.023 106.678 120.323C115.862 129.507 127.861 134.065 139.86 134.065C151.858 134.065 163.857 129.507 173.041 120.323C196.368 96.9959 200.189 26.813 200.189 26.813C200.189 26.813 130.006 30.6338 106.678 53.9611ZM163.589 110.872C157.221 117.173 148.842 120.658 139.86 120.658C133.894 120.658 128.263 118.982 123.235 116.1C129.402 96.7948 140.798 79.8356 155.947 67.0324C138.318 76.1488 123.504 90.2256 113.248 107.252C103.327 94.1135 104.198 75.4114 116.197 63.4127C127.861 51.749 160.237 44.5766 185.442 41.5601C182.425 66.7643 175.253 99.1409 163.589 110.872Z" fill="#4EAAA7"/>
</g>
<path d="M53.0108 59.2931C58.8513 67.942 70.6339 70.2258 79.2829 64.3852C83.6232 61.4542 86.3484 57.0538 87.2691 52.3036C88.1898 47.5534 87.3059 42.4534 84.375 38.1131C76.9299 27.0881 49.4383 20.1902 49.4383 20.1902C49.4383 20.1902 45.5657 48.2681 53.0108 59.2931ZM79.9079 41.1297C81.9138 44.1342 82.6508 47.7189 81.9616 51.2749C81.5038 53.6367 80.4083 55.7373 78.8814 57.5064C71.7119 53.5836 65.8723 47.771 61.9661 40.7911C64.2224 48.4699 68.6586 55.4149 74.6121 60.7815C68.6495 63.701 61.3124 61.9209 57.4829 56.25C53.7604 50.7375 53.4052 37.3696 54.145 27.16C63.8916 30.2882 76.1589 35.612 79.9079 41.1297Z" fill="#4EAAA7"/>
<defs>
<clipPath id="clip0_509:1145">
<rect width="160.878" height="160.878" fill="white" transform="translate(66.124)"/>
</clipPath>
</defs>
</svg>
